<svg width="133" height="75" viewBox="0 0 133 75" fill="none" xmlns="http://www.w3.org/2000/svg">
<g filter="url(#filter0_b_90_26)">
<path d="M118.833 32.7178C119.133 31.1496 119.289 29.5364 119.289 27.8899C119.289 12.4867 105.607 0 88.7298 0C76.183 0 65.4022 6.901 60.6958 16.7709C56.8831 13.7667 51.9357 11.9528 46.5292 11.9528C34.4739 11.9528 24.7012 20.971 24.7012 32.0955C24.7012 32.715 24.7315 33.3279 24.7908 33.9331C18.9925 36.5252 14.9999 41.964 14.9999 48.254C14.9999 57.0558 22.8181 64.191 32.4623 64.191H114.923C124.568 64.191 132.386 57.0558 132.386 48.254C132.386 40.6788 126.595 34.338 118.833 32.7178Z" fill="#303030"/>
</g>
<g filter="url(#filter1_b_90_26)">
<g filter="url(#filter2_i_90_26)">
<path d="M103.833 42.7178C104.133 41.1496 104.289 39.5364 104.289 37.8899C104.289 22.4867 90.6072 10 73.7298 10C61.183 10 50.4022 16.901 45.6958 26.7709C41.8831 23.7667 36.9357 21.9528 31.5292 21.9528C19.4739 21.9528 9.7012 30.971 9.7012 42.0955C9.7012 42.715 9.73151 43.3279 9.79082 43.9331C3.99246 46.5252 -0.000107408 51.964 -0.000107408 58.254C-0.000107408 67.0558 7.81806 74.191 17.4623 74.191H99.9234C109.568 74.191 117.386 67.0558 117.386 58.254C117.386 50.6788 111.595 44.338 103.833 42.7178Z" fill="url(#paint0_linear_90_26)"/>
</g>
</g>
<defs>
<filter id="filter0_b_90_26" x="-12" y="-27" width="171.386" height="118.191" filterUnits="userSpaceOnUse" color-interpolation-filters="sRGB">
<feFlood flood-opacity="0" result="BackgroundImageFix"/>
<feGaussianBlur in="BackgroundImageFix" stdDeviation="13.5"/>
<feComposite in2="SourceAlpha" operator="in" result="effect1_backgroundBlur_90_26"/>
<feBlend mode="normal" in="SourceGraphic" in2="effect1_backgroundBlur_90_26" result="shape"/>
</filter>
<filter id="filter1_b_90_26" x="-27" y="-17" width="171.386" height="118.191" filterUnits="userSpaceOnUse" color-interpolation-filters="sRGB">
<feFlood flood-opacity="0" result="BackgroundImageFix"/>
<feGaussianBlur in="BackgroundImageFix" stdDeviation="13.5"/>
<feComposite in2="SourceAlpha" operator="in" result="effect1_backgroundBlur_90_26"/>
<feBlend mode="normal" in="SourceGraphic" in2="effect1_backgroundBlur_90_26" result="shape"/>
</filter>
<filter id="filter2_i_90_26" x="0" y="10" width="117.386" height="74.191" filterUnits="userSpaceOnUse" color-interpolation-filters="sRGB">
<feFlood flood-opacity="0" result="BackgroundImageFix"/>
<feBlend mode="normal" in="SourceGraphic" in2="BackgroundImageFix" result="shape"/>
<feColorMatrix in="SourceAlpha" type="matrix" values="0 0 0 0 0 0 0 0 0 0 0 0 0 0 0 0 0 0 127 0" result="hardAlpha"/>
<feOffset dy="11"/>
<feGaussianBlur stdDeviation="5"/>
<feComposite in2="hardAlpha" operator="arithmetic" k2="-1" k3="1"/>
<feColorMatrix type="matrix" values="0 0 0 0 1 0 0 0 0 1 0 0 0 0 1 0 0 0 1 0"/>
<feBlend mode="normal" in2="shape" result="effect1_innerShadow_90_26"/>
</filter>
<linearGradient id="paint0_linear_90_26" x1="7.46613" y1="68.4597" x2="118.764" y2="-21.8932" gradientUnits="userSpaceOnUse">
<stop stop-color="white"/>
<stop offset="1" stop-color="white" stop-opacity="0.58"/>
</linearGradient>
</defs>
</svg>
