<svg width="126" height="101" viewBox="0 0 126 101" fill="none" xmlns="http://www.w3.org/2000/svg">
<path d="M126 41.2232C126 63.9902 106.047 82.4465 81.4341 82.4465C56.821 82.4465 36.8682 63.9902 36.8682 41.2232C36.8682 18.4563 56.821 0 81.4341 0C106.047 0 126 18.4563 126 41.2232Z" fill="url(#paint0_linear_96_29)"/>
<g filter="url(#filter0_b_96_29)">
<g filter="url(#filter1_i_96_29)">
<path d="M101.418 56.8239C101.711 55.2858 101.864 53.7036 101.864 52.0887C101.864 36.9811 88.5 24.734 72.0151 24.734C59.7601 24.734 49.23 31.5026 44.6331 41.1831C40.9091 38.2365 36.0767 36.4574 30.7959 36.4574C19.021 36.4574 9.47557 45.3026 9.47557 56.2136C9.47557 56.8211 9.50517 57.4223 9.56311 58.0159C3.8996 60.5582 -0.000118494 65.8927 -0.000118494 72.0619C-0.000118494 80.6948 7.63623 87.6931 17.0561 87.6931H97.5995C107.019 87.6931 114.656 80.6948 114.656 72.0619C114.656 64.6321 108.999 58.413 101.418 56.8239Z" fill="url(#paint1_linear_96_29)"/>
</g>
</g>
<defs>
<filter id="filter0_b_96_29" x="-27" y="-2.26599" width="168.656" height="116.959" filterUnits="userSpaceOnUse" color-interpolation-filters="sRGB">
<feFlood flood-opacity="0" result="BackgroundImageFix"/>
<feGaussianBlur in="BackgroundImageFix" stdDeviation="13.5"/>
<feComposite in2="SourceAlpha" operator="in" result="effect1_backgroundBlur_96_29"/>
<feBlend mode="normal" in="SourceGraphic" in2="effect1_backgroundBlur_96_29" result="shape"/>
</filter>
<filter id="filter1_i_96_29" x="0" y="24.734" width="114.656" height="72.9591" filterUnits="userSpaceOnUse" color-interpolation-filters="sRGB">
<feFlood flood-opacity="0" result="BackgroundImageFix"/>
<feBlend mode="normal" in="SourceGraphic" in2="BackgroundImageFix" result="shape"/>
<feColorMatrix in="SourceAlpha" type="matrix" values="0 0 0 0 0 0 0 0 0 0 0 0 0 0 0 0 0 0 127 0" result="hardAlpha"/>
<feOffset dy="11"/>
<feGaussianBlur stdDeviation="5"/>
<feComposite in2="hardAlpha" operator="arithmetic" k2="-1" k3="1"/>
<feColorMatrix type="matrix" values="0 0 0 0 1 0 0 0 0 1 0 0 0 0 1 0 0 0 1 0"/>
<feBlend mode="normal" in2="shape" result="effect1_innerShadow_96_29"/>
</filter>
<linearGradient id="paint0_linear_96_29" x1="74.6646" y1="63.6612" x2="107.191" y2="1.98991" gradientUnits="userSpaceOnUse">
<stop stop-color="#FF9900"/>
<stop offset="1" stop-color="#FFEE94"/>
</linearGradient>
<linearGradient id="paint1_linear_96_29" x1="7.29248" y1="82.0718" x2="116.36" y2="-6.10385" gradientUnits="userSpaceOnUse">
<stop stop-color="white"/>
<stop offset="1" stop-color="white" stop-opacity="0.58"/>
</linearGradient>
</defs>
</svg>
