<svg width="118" height="95" viewBox="0 0 118 95" fill="none" xmlns="http://www.w3.org/2000/svg">
<g filter="url(#filter0_b_97_76)">
<g filter="url(#filter1_i_97_76)">
<path d="M103.833 32.7178C104.133 31.1496 104.289 29.5364 104.289 27.8899C104.289 12.4867 90.6072 0 73.7298 0C61.183 0 50.4022 6.901 45.6958 16.7709C41.8831 13.7667 36.9357 11.9528 31.5292 11.9528C19.4739 11.9528 9.7012 20.971 9.7012 32.0955C9.7012 32.715 9.73151 33.3279 9.79082 33.9331C3.99246 36.5252 -0.000107408 41.964 -0.000107408 48.254C-0.000107408 57.0558 7.81806 64.191 17.4623 64.191H99.9234C109.568 64.191 117.386 57.0558 117.386 48.254C117.386 40.6788 111.595 34.338 103.833 32.7178Z" fill="url(#paint0_linear_97_76)"/>
</g>
</g>
<path fill-rule="evenodd" clip-rule="evenodd" d="M45.7749 94.5238H8.87718C7.84476 94.5238 7.00005 93.731 7.00005 92.7619C7.00005 91.7929 7.84476 91 8.87718 91H45.7749C46.8091 91 47.6538 91.7929 47.6538 92.7619C47.6538 93.731 46.8091 94.5238 45.7749 94.5238" fill="white"/>
<path fill-rule="evenodd" clip-rule="evenodd" d="M72.8272 86H9.17079C7.97686 86 7 85.1004 7 83.9991C7 82.8996 7.97686 82 9.17079 82H72.8272C74.0211 82 75 82.8996 75 83.9991C75 85.1004 74.0211 86 72.8272 86" fill="white"/>
<path fill-rule="evenodd" clip-rule="evenodd" d="M105.489 77H9.5107C8.12982 77 7 76.1004 7 74.9991C7 73.8996 8.12982 73 9.5107 73H105.489C106.87 73 108 73.8996 108 74.9991C108 76.1004 106.87 77 105.489 77" fill="white"/>
<defs>
<filter id="filter0_b_97_76" x="-27" y="-27" width="171.386" height="118.191" filterUnits="userSpaceOnUse" color-interpolation-filters="sRGB">
<feFlood flood-opacity="0" result="BackgroundImageFix"/>
<feGaussianBlur in="BackgroundImageFix" stdDeviation="13.5"/>
<feComposite in2="SourceAlpha" operator="in" result="effect1_backgroundBlur_97_76"/>
<feBlend mode="normal" in="SourceGraphic" in2="effect1_backgroundBlur_97_76" result="shape"/>
</filter>
<filter id="filter1_i_97_76" x="0" y="0" width="117.386" height="74.191" filterUnits="userSpaceOnUse" color-interpolation-filters="sRGB">
<feFlood flood-opacity="0" result="BackgroundImageFix"/>
<feBlend mode="normal" in="SourceGraphic" in2="BackgroundImageFix" result="shape"/>
<feColorMatrix in="SourceAlpha" type="matrix" values="0 0 0 0 0 0 0 0 0 0 0 0 0 0 0 0 0 0 127 0" result="hardAlpha"/>
<feOffset dy="11"/>
<feGaussianBlur stdDeviation="5"/>
<feComposite in2="hardAlpha" operator="arithmetic" k2="-1" k3="1"/>
<feColorMatrix type="matrix" values="0 0 0 0 1 0 0 0 0 1 0 0 0 0 1 0 0 0 1 0"/>
<feBlend mode="normal" in2="shape" result="effect1_innerShadow_97_76"/>
</filter>
<linearGradient id="paint0_linear_97_76" x1="7.46613" y1="58.4597" x2="118.764" y2="-31.8932" gradientUnits="userSpaceOnUse">
<stop stop-color="white"/>
<stop offset="1" stop-color="white" stop-opacity="0.58"/>
</linearGradient>
</defs>
</svg>
