<svg width="35" height="35" viewBox="0 0 35 35" fill="none" xmlns="http://www.w3.org/2000/svg">
  <path fill-rule="evenodd" clip-rule="evenodd" d="M23.3332 13.1251C23.3332 14.6722 22.7186 16.1559 21.6246 17.2499C20.5307 18.3438 19.0469 18.9584 17.4998 18.9584C15.9527 18.9584 14.469 18.3438 13.375 17.2499C12.2811 16.1559 11.6665 14.6722 11.6665 13.1251C11.6665 11.578 12.2811 10.0943 13.375 9.00029C14.469 7.90633 15.9527 7.29175 17.4998 7.29175C19.0469 7.29175 20.5307 7.90633 21.6246 9.00029C22.7186 10.0943 23.3332 11.578 23.3332 13.1251ZM20.4165 13.1251C20.4165 13.8986 20.1092 14.6405 19.5622 15.1875C19.0153 15.7345 18.2734 16.0417 17.4998 16.0417C16.7263 16.0417 15.9844 15.7345 15.4374 15.1875C14.8905 14.6405 14.5832 13.8986 14.5832 13.1251C14.5832 12.3515 14.8905 11.6097 15.4374 11.0627C15.9844 10.5157 16.7263 10.2084 17.4998 10.2084C18.2734 10.2084 19.0153 10.5157 19.5622 11.0627C20.1092 11.6097 20.4165 12.3515 20.4165 13.1251Z" fill="white"/>
  <path fill-rule="evenodd" clip-rule="evenodd" d="M17.4999 1.45837C8.64054 1.45837 1.45825 8.64067 1.45825 17.5C1.45825 26.3594 8.64054 33.5417 17.4999 33.5417C26.3593 33.5417 33.5416 26.3594 33.5416 17.5C33.5416 8.64067 26.3593 1.45837 17.4999 1.45837ZM4.37492 17.5C4.37492 20.548 5.41471 23.3538 7.15742 25.5821C8.3813 23.9749 9.96019 22.6724 11.7708 21.7763C13.5813 20.8803 15.5745 20.415 17.5947 20.4167C19.5887 20.4148 21.5569 20.8681 23.3492 21.742C25.1415 22.6159 26.7107 23.8874 27.9372 25.4596C29.2008 23.8024 30.0516 21.8681 30.4191 19.8167C30.7867 17.7654 30.6605 15.656 30.0511 13.6631C29.4416 11.6703 28.3663 9.85115 26.9142 8.35634C25.4621 6.86154 23.6749 5.734 21.7005 5.06703C19.7261 4.40006 17.6212 4.21283 15.5601 4.52083C13.499 4.82884 11.5409 5.62322 9.84771 6.83824C8.15455 8.05327 6.77506 9.65402 5.82338 11.508C4.8717 13.3621 4.37518 15.416 4.37492 17.5ZM17.4999 30.625C14.4869 30.6296 11.5649 29.593 9.22825 27.6909C10.1688 26.3444 11.4206 25.2451 12.8773 24.4865C14.3339 23.7278 15.9523 23.3322 17.5947 23.3334C19.2166 23.3321 20.8154 23.7177 22.2584 24.4584C23.7013 25.199 24.9467 26.2732 25.8912 27.5917C23.5364 29.5556 20.5662 30.6293 17.4999 30.625Z" fill="white"/>
</svg>
