<svg width="256" height="181" viewBox="0 0 256 181" fill="none" xmlns="http://www.w3.org/2000/svg">
<path d="M196 42.0299C196 65.2423 175.572 84.0597 150.373 84.0597C125.174 84.0597 104.746 65.2423 104.746 42.0299C104.746 18.8174 125.174 0 150.373 0C175.572 0 196 18.8174 196 42.0299Z" fill="url(#paint0_linear_96_54)"/>
<g filter="url(#filter0_b_96_54)">
<g filter="url(#filter1_i_96_54)">
<path d="M170.833 57.9357C171.133 56.3675 171.289 54.7543 171.289 53.1078C171.289 37.7046 157.607 25.2179 140.73 25.2179C128.183 25.2179 117.402 32.1189 112.696 41.9888C108.883 38.9846 103.936 37.1707 98.5292 37.1707C86.4739 37.1707 76.7012 46.1889 76.7012 57.3134C76.7012 57.9329 76.7315 58.5458 76.7908 59.151C70.9925 61.7431 66.9999 67.1819 66.9999 73.4719C66.9999 82.2737 74.8181 89.4089 84.4623 89.4089H166.923C176.568 89.4089 184.386 82.2737 184.386 73.4719C184.386 65.8967 178.595 59.5559 170.833 57.9357Z" fill="url(#paint1_linear_96_54)"/>
</g>
</g>
<path d="M97.9022 100.107C92.7375 106.348 85.5069 118.83 97.9022 118.83C110.297 118.83 103.067 106.348 97.9022 100.107Z" fill="#00BCFF"/>
<path d="M126.937 109.278C121.773 115.518 114.542 128 126.937 128C139.333 128 132.102 115.518 126.937 109.278Z" fill="#00BCFF"/>
<path d="M153.899 100.107C148.734 106.348 141.504 118.83 153.899 118.83C166.294 118.83 159.064 106.348 153.899 100.107Z" fill="#00BCFF"/>
<g filter="url(#filter2_f_96_54)">
<rect x="78.1995" y="89.5798" width="99.5498" height="13.3731" rx="6.68657" fill="#00BCFF"/>
</g>
<defs>
<filter id="filter0_b_96_54" x="40" y="-1.7821" width="171.386" height="118.191" filterUnits="userSpaceOnUse" color-interpolation-filters="sRGB">
<feFlood flood-opacity="0" result="BackgroundImageFix"/>
<feGaussianBlur in="BackgroundImageFix" stdDeviation="13.5"/>
<feComposite in2="SourceAlpha" operator="in" result="effect1_backgroundBlur_96_54"/>
<feBlend mode="normal" in="SourceGraphic" in2="effect1_backgroundBlur_96_54" result="shape"/>
</filter>
<filter id="filter1_i_96_54" x="67" y="25.2179" width="117.386" height="74.191" filterUnits="userSpaceOnUse" color-interpolation-filters="sRGB">
<feFlood flood-opacity="0" result="BackgroundImageFix"/>
<feBlend mode="normal" in="SourceGraphic" in2="BackgroundImageFix" result="shape"/>
<feColorMatrix in="SourceAlpha" type="matrix" values="0 0 0 0 0 0 0 0 0 0 0 0 0 0 0 0 0 0 127 0" result="hardAlpha"/>
<feOffset dy="11"/>
<feGaussianBlur stdDeviation="5"/>
<feComposite in2="hardAlpha" operator="arithmetic" k2="-1" k3="1"/>
<feColorMatrix type="matrix" values="0 0 0 0 1 0 0 0 0 1 0 0 0 0 1 0 0 0 1 0"/>
<feBlend mode="normal" in2="shape" result="effect1_innerShadow_96_54"/>
</filter>
<filter id="filter2_f_96_54" x="0.199463" y="11.5798" width="255.55" height="169.373" filterUnits="userSpaceOnUse" color-interpolation-filters="sRGB">
<feFlood flood-opacity="0" result="BackgroundImageFix"/>
<feBlend mode="normal" in="SourceGraphic" in2="BackgroundImageFix" result="shape"/>
<feGaussianBlur stdDeviation="39" result="effect1_foregroundBlur_96_54"/>
</filter>
<linearGradient id="paint0_linear_96_54" x1="143.442" y1="64.9069" x2="176.527" y2="1.91546" gradientUnits="userSpaceOnUse">
<stop stop-color="#FF9900"/>
<stop offset="1" stop-color="#FFEE94"/>
</linearGradient>
<linearGradient id="paint1_linear_96_54" x1="74.4661" y1="83.6776" x2="185.764" y2="-6.67532" gradientUnits="userSpaceOnUse">
<stop stop-color="white"/>
<stop offset="1" stop-color="white" stop-opacity="0.58"/>
</linearGradient>
</defs>
</svg>
