<svg width="82" height="84" viewBox="0 0 82 84" fill="none" xmlns="http://www.w3.org/2000/svg">
<path fill-rule="evenodd" clip-rule="evenodd" d="M75.5328 51.0712L74.9844 47.5388L58.3 49.7406L44.871 42.596L58.298 35.4533L74.9844 37.6552L75.5328 34.1246L63.7283 32.5644L82 22.844L80.065 19.7539L61.7913 29.4761L66.2304 19.2736L62.6356 17.9469L56.363 32.3632L43.2464 39.3407V25.2205L53.6581 13.006L50.6139 10.8004L43.2464 19.4445V0H39.3744V19.4445L32.0049 10.8004L28.9627 13.006L39.3744 25.2205V39.671L25.637 32.3632L19.3623 17.9469L15.7676 19.2755L20.2066 29.4761L1.93499 19.7539L0 22.844L18.2717 32.5644L6.46513 34.1246L7.01562 37.6552L23.7 35.4533L37.129 42.596L23.6979 49.7406L7.01562 47.5388L6.46513 51.0712L18.2717 52.6295L0 62.3499L1.93499 65.44L20.2087 55.7178L15.7676 65.9203L19.3623 67.2471L25.635 52.8307L39.3744 45.5229V59.9165L28.9627 72.1348L32.007 74.3366L39.3744 65.6944V84H43.2464V65.6944L50.6139 74.3366L53.6581 72.1348L43.2464 59.9184V45.8532L56.363 52.8307L62.6356 67.2471L66.2304 65.9203L61.7913 55.7178L80.065 65.44L82 62.3499L63.7283 52.6295L75.5328 51.0712" fill="white"/>
</svg>
