<svg width="24" height="24" viewBox="0 0 24 24" fill="none" xmlns="http://www.w3.org/2000/svg">
  <path fill-rule="evenodd" clip-rule="evenodd" d="M11.5605 14.2277L11.3033 8.44991H12.6962L12.4283 14.2289L11.5605 14.2277ZM11.9826 16.4789C11.8932 16.4804 11.8045 16.4616 11.722 16.4237C11.6394 16.3858 11.5648 16.3296 11.5026 16.2586C11.4387 16.1907 11.388 16.1089 11.3537 16.0185C11.3195 15.9281 11.3023 15.8308 11.3033 15.7328C11.3033 15.5268 11.3698 15.3503 11.5026 15.2047C11.5651 15.1343 11.6398 15.0786 11.7224 15.0412C11.8049 15.0037 11.8934 14.9852 11.9826 14.9868C12.1637 14.9868 12.3201 15.0578 12.454 15.2023C12.5869 15.3468 12.6533 15.522 12.6533 15.7328C12.6546 15.8316 12.6373 15.9295 12.6024 16.0205C12.5676 16.1114 12.5159 16.1933 12.4508 16.261C12.39 16.3302 12.3172 16.3851 12.2368 16.4225C12.1563 16.46 12.0699 16.4791 11.9826 16.4789ZM5.57135 18.8947C5.38545 18.8947 5.20274 18.8413 5.04118 18.7396C4.87962 18.638 4.74476 18.4916 4.64986 18.3149C4.55497 18.1383 4.5033 17.9373 4.49993 17.7319C4.49657 17.5264 4.54162 17.3236 4.63067 17.1432L11.0591 4.11689C11.1512 3.93006 11.2872 3.77413 11.4527 3.66549C11.6183 3.55685 11.8072 3.49951 11.9998 3.49951C12.1923 3.49951 12.3812 3.55685 12.5468 3.66549C12.7123 3.77413 12.8483 3.93006 12.9404 4.11689L19.3688 17.1432C19.4579 17.3236 19.5029 17.5264 19.4996 17.7319C19.4962 17.9373 19.4445 18.1383 19.3496 18.3149C19.2548 18.4916 19.1199 18.638 18.9583 18.7396C18.7968 18.8413 18.6141 18.8947 18.4282 18.8947H5.57135ZM5.57135 17.7104H18.4282L11.9998 4.68412L5.57135 17.7104Z" fill="#BE0202"/>
</svg>
