<svg width="118" height="65" viewBox="0 0 118 65" fill="none" xmlns="http://www.w3.org/2000/svg">
  <g filter="url(#filter0_b_10_136)">
    <g filter="url(#filter1_i_10_136)">
      <path d="M103.833 32.9357C104.133 31.3675 104.289 29.7543 104.289 28.1078C104.289 12.7046 90.6072 0.217896 73.7298 0.217896C61.183 0.217896 50.4022 7.1189 45.6958 16.9888C41.8831 13.9846 36.9357 12.1707 31.5292 12.1707C19.4739 12.1707 9.7012 21.1889 9.7012 32.3134C9.7012 32.9329 9.73151 33.5458 9.79082 34.151C3.99246 36.7431 -0.000106812 42.1819 -0.000106812 48.4719C-0.000106812 57.2737 7.81806 64.4089 17.4623 64.4089H99.9234C109.568 64.4089 117.386 57.2737 117.386 48.4719C117.386 40.8967 111.595 34.5559 103.833 32.9357Z" fill="url(#paint0_linear_10_136)"/>
    </g>
  </g>
  <defs>
    <filter id="filter0_b_10_136" x="-27" y="-26.7821" width="171.386" height="118.191" filterUnits="userSpaceOnUse" color-interpolation-filters="sRGB">
      <feFlood flood-opacity="0" result="BackgroundImageFix"/>
      <feGaussianBlur in="BackgroundImageFix" stdDeviation="13.5"/>
      <feComposite in2="SourceAlpha" operator="in" result="effect1_backgroundBlur_10_136"/>
      <feBlend mode="normal" in="SourceGraphic" in2="effect1_backgroundBlur_10_136" result="shape"/>
    </filter>
    <filter id="filter1_i_10_136" x="0" y="0.217896" width="117.386" height="74.191" filterUnits="userSpaceOnUse" color-interpolation-filters="sRGB">
      <feFlood flood-opacity="0" result="BackgroundImageFix"/>
      <feBlend mode="normal" in="SourceGraphic" in2="BackgroundImageFix" result="shape"/>
      <feColorMatrix in="SourceAlpha" type="matrix" values="0 0 0 0 0 0 0 0 0 0 0 0 0 0 0 0 0 0 127 0" result="hardAlpha"/>
      <feOffset dy="11"/>
      <feGaussianBlur stdDeviation="5"/>
      <feComposite in2="hardAlpha" operator="arithmetic" k2="-1" k3="1"/>
      <feColorMatrix type="matrix" values="0 0 0 0 1 0 0 0 0 1 0 0 0 0 1 0 0 0 1 0"/>
      <feBlend mode="normal" in2="shape" result="effect1_innerShadow_10_136"/>
    </filter>
    <linearGradient id="paint0_linear_10_136" x1="7.46613" y1="58.6776" x2="118.764" y2="-31.6753" gradientUnits="userSpaceOnUse">
      <stop stop-color="white"/>
      <stop offset="1" stop-color="white" stop-opacity="0.58"/>
    </linearGradient>
  </defs>
</svg>
