<svg width="35" height="34" viewBox="0 0 35 34" fill="none" xmlns="http://www.w3.org/2000/svg">
  <path d="M27.25 30.1715C25.9521 30.1715 24.6833 29.8054 23.6041 29.1194C22.5249 28.4335 21.6837 27.4586 21.187 26.3179C20.6903 25.1773 20.5604 23.9222 20.8136 22.7113C21.0668 21.5004 21.6918 20.3881 22.6096 19.5151C23.5274 18.642 24.6967 18.0475 25.9697 17.8067C27.2427 17.5658 28.5622 17.6894 29.7614 18.1619C30.9605 18.6344 31.9854 19.4345 32.7065 20.461C33.4276 21.4876 33.8125 22.6945 33.8125 23.9291C33.8105 25.5841 33.1184 27.1707 31.8882 28.341C30.6579 29.5112 28.9899 30.1695 27.25 30.1715ZM27.25 19.7675C26.3847 19.7675 25.5388 20.0116 24.8194 20.4689C24.0999 20.9261 23.5392 21.5761 23.208 22.3365C22.8769 23.0969 22.7903 23.9337 22.9591 24.741C23.1279 25.5482 23.5446 26.2898 24.1564 26.8718C24.7683 27.4538 25.5478 27.8501 26.3965 28.0107C27.2451 28.1713 28.1248 28.0889 28.9242 27.7739C29.7237 27.4589 30.4069 26.9255 30.8877 26.2411C31.3684 25.5568 31.625 24.7522 31.625 23.9291C31.6236 22.8258 31.1622 21.7681 30.342 20.9879C29.5218 20.2078 28.4099 19.7689 27.25 19.7675ZM7.5625 30.1715C6.26456 30.1715 4.99577 29.8054 3.91657 29.1194C2.83738 28.4335 1.99624 27.4586 1.49954 26.3179C1.00284 25.1773 0.872884 23.9222 1.1261 22.7113C1.37932 21.5004 2.00433 20.3881 2.92211 19.5151C3.8399 18.642 5.00922 18.0475 6.28222 17.8067C7.55522 17.5658 8.87472 17.6894 10.0739 18.1619C11.273 18.6344 12.2979 19.4345 13.019 20.461C13.7401 21.4876 14.125 22.6945 14.125 23.9291C14.123 25.5841 13.4309 27.1707 12.2007 28.341C10.9704 29.5112 9.30236 30.1695 7.5625 30.1715ZM7.5625 19.7675C6.69721 19.7675 5.85135 20.0116 5.13188 20.4689C4.41242 20.9261 3.85166 21.5761 3.52053 22.3365C3.1894 23.0969 3.10276 23.9337 3.27157 24.741C3.44038 25.5482 3.85706 26.2898 4.46891 26.8718C5.08077 27.4538 5.86032 27.8501 6.70898 28.0107C7.55765 28.1713 8.43732 28.0889 9.23674 27.7739C10.0362 27.4589 10.7195 26.9255 11.2002 26.2411C11.6809 25.5568 11.9375 24.7522 11.9375 23.9291C11.9361 22.8258 11.4747 21.7681 10.6545 20.9879C9.83434 20.2078 8.72238 19.7689 7.5625 19.7675Z" fill="white" fill-opacity="0.5"/>
  <path d="M18.5001 27.0503H16.3126V20.1983L10.39 14.5656C9.98 14.1749 9.74976 13.6454 9.74976 13.0934C9.74976 12.5414 9.98 12.0119 10.39 11.6212L15.4059 6.85101C15.8164 6.46143 16.3726 6.24264 16.9525 6.24264C17.5323 6.24264 18.0885 6.46143 18.499 6.85101L23.3279 11.4444H29.4376V13.5252H22.4212L16.9525 8.32317L11.9376 13.0934L18.5001 19.3358V27.0503ZM23.422 7.28278C22.6649 7.28278 21.9247 7.06921 21.2952 6.66909C20.6657 6.26897 20.175 5.70026 19.8853 5.03489C19.5955 4.36951 19.5197 3.63735 19.6674 2.93099C19.8151 2.22463 20.1797 1.5758 20.7151 1.06654C21.2505 0.557282 21.9326 0.210474 22.6752 0.0699699C23.4177 -0.0705339 24.1875 0.00157775 24.887 0.277186C25.5865 0.552794 26.1843 1.01952 26.605 1.61834C27.0256 2.21717 27.2501 2.92119 27.2501 3.64139C27.249 4.60681 26.8453 5.53237 26.1276 6.21502C25.4099 6.89768 24.4369 7.28167 23.422 7.28278ZM23.422 2.08079C23.0975 2.08079 22.7803 2.17232 22.5105 2.3438C22.2407 2.51528 22.0304 2.75901 21.9063 3.04417C21.7821 3.32934 21.7496 3.64312 21.8129 3.94585C21.8762 4.24857 22.0325 4.52664 22.2619 4.7449C22.4913 4.96315 22.7837 5.11178 23.1019 5.172C23.4202 5.23221 23.75 5.20131 24.0498 5.08319C24.3496 4.96507 24.6058 4.76505 24.7861 4.50841C24.9664 4.25177 25.0626 3.95005 25.0626 3.64139C25.062 3.22766 24.889 2.83104 24.5815 2.53849C24.2739 2.24594 23.8569 2.08134 23.422 2.08079Z" fill="white" fill-opacity="0.5"/>
</svg>
