<svg width="28" height="28" viewBox="0 0 28 28" fill="none" xmlns="http://www.w3.org/2000/svg">
  <path d="M11.0941 5.44446C11.5213 4.9671 12.1422 4.66669 12.8333 4.66669C14.1219 4.66669 15.1666 5.71136 15.1666 7.00002C15.1666 8.28868 14.1219 9.33335 12.8333 9.33335H2.33328M14.5941 22.5556C15.0213 23.0329 15.6422 23.3334 16.3333 23.3334C17.6219 23.3334 18.6666 22.2887 18.6666 21C18.6666 19.7114 17.6219 18.6667 16.3333 18.6667H2.33328M19.5578 8.16669C20.1987 7.45065 21.13 7.00002 22.1666 7.00002C24.0996 7.00002 25.6666 8.56702 25.6666 10.5C25.6666 12.433 24.0996 14 22.1666 14H2.33325" stroke="white" stroke-width="2" stroke-linecap="round" stroke-linejoin="round"/>
</svg>
